<?xml version="1.0" encoding="UTF-8" standalone="no"?>
<svg
   width="256"
   height="256"
   viewBox="0 0 67.733335 67.733335"
   version="1.1"
   id="svg8"
   xmlns="http://www.w3.org/2000/svg"
   xmlns:svg="http://www.w3.org/2000/svg"
   xmlns:rdf="http://www.w3.org/1999/02/22-rdf-syntax-ns#"
   xmlns:cc="http://creativecommons.org/ns#"
   xmlns:dc="http://purl.org/dc/elements/1.1/">
  <defs
     id="defs2" />
  <metadata
     id="metadata5">
    <rdf:RDF>
      <cc:Work
         rdf:about="">
        <dc:format>image/svg+xml</dc:format>
        <dc:type
           rdf:resource="http://purl.org/dc/dcmitype/StillImage" />
      </cc:Work>
    </rdf:RDF>
  </metadata>
  <g
     id="layer2">
    <g
       id="g6"
       transform="matrix(2.5830145,0,0,2.5830145,-41.77153,-48.144758)">
      <path
         id="circle2872"
         style="display:inline;fill:#000000;fill-rule:evenodd;stroke:none;stroke-width:0.000830063;stroke-linecap:round;stroke-linejoin:round;stroke-dasharray:none"
         d="m 30.141313,24.923027 a 0.03324905,0.03324905 0 0 0 -0.03359,0.03359 0.03324905,0.03324905 0 0 0 0.03359,0.03307 0.03324905,0.03324905 0 0 0 0.03307,-0.03307 0.03324905,0.03324905 0 0 0 -0.03307,-0.03359 z m 1.695504,0 a 0.03324905,0.03324905 0 0 0 -0.03307,0.03359 0.03324905,0.03324905 0 0 0 0.03307,0.03307 0.03324905,0.03324905 0 0 0 0.03307,-0.03307 0.03324905,0.03324905 0 0 0 -0.03307,-0.03359 z m -3.394625,0.01033 a 0.02327434,0.02327434 0 0 0 -0.02015,0.02326 0.02327434,0.02327434 0 0 0 0.02325,0.02325 0.02327434,0.02327434 0 0 0 0.02325,-0.02325 0.02327434,0.02327434 0 0 0 -0.0026,-0.01137 0.02327434,0.02327434 0 0 0 -0.0088,-0.0088 0.02327434,0.02327434 0 0 0 -0.01188,-0.0031 0.02327434,0.02327434 0 0 0 -0.0031,0 z m 5.087028,0 a 0.02327434,0.02327434 0 0 0 -0.02015,0.02326 0.02327434,0.02327434 0 0 0 0.02325,0.02325 0.02327434,0.02327434 0 0 0 0.02325,-0.02325 0.02327434,0.02327434 0 0 0 -0.0026,-0.01137 0.02327434,0.02327434 0 0 0 -0.0078,-0.0083 0.02327434,0.02327434 0 0 0 -0.01292,-0.0036 0.02327434,0.02327434 0 0 0 -0.0031,0 z m 1.699122,0.01292 a 0.00997472,0.00997472 0 0 0 -0.0098,0.01034 0.00997472,0.00997472 0 0 0 0.0098,0.0098 0.00997472,0.00997472 0 0 0 0.0098,-0.0098 0.00997472,0.00997472 0 0 1 0,-5.17e-4 0.00997472,0.00997472 0 0 1 0,-5.17e-4 0.00997472,0.00997472 0 0 1 0,-5.16e-4 0.00997472,0.00997472 0 0 1 0,-5.17e-4 0.00997472,0.00997472 0 0 1 0,-5.17e-4 0.00997472,0.00997472 0 0 1 -5.17e-4,-5.17e-4 0.00997472,0.00997472 0 0 1 0,-5.17e-4 0.00997472,0.00997472 0 0 1 0,-5.16e-4 0.00997472,0.00997472 0 0 1 -5.16e-4,-5.17e-4 0.00997472,0.00997472 0 0 1 -5.17e-4,-5.17e-4 0.00997472,0.00997472 0 0 1 0,-5.17e-4 0.00997472,0.00997472 0 0 1 -5.17e-4,-5.16e-4 0.00997472,0.00997472 0 0 1 0,-5.17e-4 0.00997472,0.00997472 0 0 1 -5.17e-4,0 0.00997472,0.00997472 0 0 1 -5.17e-4,-5.17e-4 0.00997472,0.00997472 0 0 1 0,-5.17e-4 0.00997472,0.00997472 0 0 1 -5.16e-4,0 0.00997472,0.00997472 0 0 1 -5.17e-4,-5.16e-4 0.00997472,0.00997472 0 0 1 -5.17e-4,-5.17e-4 0.00997472,0.00997472 0 0 1 -5.17e-4,0 0.00997472,0.00997472 0 0 1 -5.16e-4,-5.17e-4 0.00997472,0.00997472 0 0 1 -5.17e-4,0 0.00997472,0.00997472 0 0 1 -5.17e-4,0 0.00997472,0.00997472 0 0 1 -5.17e-4,-5.17e-4 0.00997472,0.00997472 0 0 1 -5.16e-4,0 0.00997472,0.00997472 0 0 1 -5.17e-4,0 0.00997472,0.00997472 0 0 1 -5.17e-4,-5.16e-4 0.00997472,0.00997472 0 0 1 -5.17e-4,0 0.00997472,0.00997472 0 0 1 -5.16e-4,0 z m -5.087029,1.53944 a 0.16624527,0.16624527 0 0 0 -0.166398,0.166399 0.16624527,0.16624527 0 0 0 0.166398,0.166398 0.16624527,0.16624527 0 0 0 0.165882,-0.166398 0.16624527,0.16624527 0 0 0 -0.165882,-0.166399 z m 1.695504,0 a 0.16624527,0.16624527 0 0 0 -0.166398,0.166399 0.16624527,0.16624527 0 0 0 0.166398,0.166398 0.16624527,0.16624527 0 0 0 0.166398,-0.166398 0.16624527,0.16624527 0 0 0 -0.166398,-0.166399 z m 5.087028,0.106454 a 0.0598483,0.0598483 0 0 0 -0.05994,0.05995 0.0598483,0.0598483 0 0 0 0.05994,0.05994 0.0598483,0.0598483 0 0 0 0.05994,-0.05994 0.0598483,0.0598483 0 0 0 -0.05994,-0.05995 z m -11.86956,0.0036 a 0.05652339,0.05652339 0 0 0 -0.05684,0.05633 0.05652339,0.05652339 0 0 0 0.05684,0.05633 0.05652339,0.05652339 0 0 0 0.05633,-0.05633 0.05652339,0.05652339 0 0 0 -0.05633,-0.05633 z m -1.69602,0.04289 a 0.01329962,0.01329962 0 0 0 -0.01344,0.01344 0.01329962,0.01329962 0 0 0 0.01344,0.01343 0.01329962,0.01329962 0 0 0 0.01344,-0.01343 0.01329962,0.01329962 0 0 1 0,-5.17e-4 0.01329962,0.01329962 0 0 0 0,-5.17e-4 0.01329962,0.01329962 0 0 0 0,-5.17e-4 0.01329962,0.01329962 0 0 0 0,-5.16e-4 0.01329962,0.01329962 0 0 1 -5.17e-4,-5.17e-4 0.01329962,0.01329962 0 0 1 0,-5.17e-4 0.01329962,0.01329962 0 0 0 -5.17e-4,-0.0016 0.01329962,0.01329962 0 0 1 0,-5.17e-4 0.01329962,0.01329962 0 0 1 -5.17e-4,-5.17e-4 0.01329962,0.01329962 0 0 1 0,-5.17e-4 0.01329962,0.01329962 0 0 1 -5.16e-4,-5.16e-4 0.01329962,0.01329962 0 0 1 0,-5.17e-4 0.01329962,0.01329962 0 0 1 -5.17e-4,-5.17e-4 0.01329962,0.01329962 0 0 1 -5.17e-4,-5.17e-4 0.01329962,0.01329962 0 0 1 -5.17e-4,-5.16e-4 0.01329962,0.01329962 0 0 1 -5.17e-4,-5.17e-4 0.01329962,0.01329962 0 0 1 -5.16e-4,-5.17e-4 0.01329962,0.01329962 0 0 1 -5.17e-4,-5.17e-4 0.01329962,0.01329962 0 0 1 -5.17e-4,-5.16e-4 0.01329962,0.01329962 0 0 1 -5.17e-4,0 0.01329962,0.01329962 0 0 1 -5.16e-4,-5.17e-4 0.01329962,0.01329962 0 0 1 -5.17e-4,-5.17e-4 0.01329962,0.01329962 0 0 1 -5.17e-4,0 0.01329962,0.01329962 0 0 1 -5.17e-4,-5.17e-4 0.01329962,0.01329962 0 0 1 -5.16e-4,0 0.01329962,0.01329962 0 0 0 -0.0016,-5.16e-4 0.01329962,0.01329962 0 0 1 -5.16e-4,0 0.01329962,0.01329962 0 0 1 -5.17e-4,0 0.01329962,0.01329962 0 0 0 -0.0016,-5.17e-4 0.01329962,0.01329962 0 0 1 -5.16e-4,0 z m 15.261601,0 a 0.01329962,0.01329962 0 0 0 -0.01344,0.01344 0.01329962,0.01329962 0 0 0 0.01344,0.01343 0.01329962,0.01329962 0 0 0 0.01292,-0.01343 0.01329962,0.01329962 0 0 1 0,-5.17e-4 0.01329962,0.01329962 0 0 0 0,-5.17e-4 0.01329962,0.01329962 0 0 0 0,-5.17e-4 0.01329962,0.01329962 0 0 0 0,-5.16e-4 0.01329962,0.01329962 0 0 1 0,-5.17e-4 0.01329962,0.01329962 0 0 1 0,-5.17e-4 0.01329962,0.01329962 0 0 0 -5.17e-4,-0.0016 0.01329962,0.01329962 0 0 1 -5.17e-4,-5.17e-4 0.01329962,0.01329962 0 0 1 0,-5.17e-4 0.01329962,0.01329962 0 0 1 -5.16e-4,-5.17e-4 0.01329962,0.01329962 0 0 1 0,-5.16e-4 0.01329962,0.01329962 0 0 1 -5.17e-4,-5.17e-4 0.01329962,0.01329962 0 0 1 -5.17e-4,-5.17e-4 0.01329962,0.01329962 0 0 1 -5.17e-4,-5.17e-4 0.01329962,0.01329962 0 0 1 0,-5.16e-4 0.01329962,0.01329962 0 0 1 -5.16e-4,-5.17e-4 0.01329962,0.01329962 0 0 1 -5.17e-4,-5.17e-4 0.01329962,0.01329962 0 0 1 -5.17e-4,-5.17e-4 0.01329962,0.01329962 0 0 1 -5.17e-4,-5.16e-4 0.01329962,0.01329962 0 0 1 -5.16e-4,0 0.01329962,0.01329962 0 0 1 -5.17e-4,-5.17e-4 0.01329962,0.01329962 0 0 1 -5.17e-4,-5.17e-4 0.01329962,0.01329962 0 0 0 -0.0016,-5.17e-4 0.01329962,0.01329962 0 0 1 -5.17e-4,0 0.01329962,0.01329962 0 0 1 -5.17e-4,-5.16e-4 0.01329962,0.01329962 0 0 1 -5.17e-4,0 0.01329962,0.01329962 0 0 0 -0.0015,0 0.01329962,0.01329962 0 0 1 -5.17e-4,-5.17e-4 0.01329962,0.01329962 0 0 1 -5.16e-4,0 0.01329962,0.01329962 0 0 1 -5.17e-4,0 z m -1.696021,1.519804 a 0.18951961,0.18951961 0 0 0 -0.189652,0.189135 0.18951961,0.18951961 0 0 0 0.189652,0.189653 0.18951961,0.18951961 0 0 0 0.189653,-0.189653 0.18951961,0.18951961 0 0 0 -0.189653,-0.189135 z m 1.696021,0.07958 a 0.10972188,0.10972188 0 0 0 -0.110071,0.109554 0.10972188,0.10972188 0 0 0 0.110071,0.110071 0.10972188,0.10972188 0 0 0 0.109554,-0.110071 0.10972188,0.10972188 0 0 0 -0.109554,-0.109554 z m 1.690336,0.07338 a 0.03657396,0.03657396 0 0 0 -0.03152,0.03617 0.03657396,0.03657396 0 0 0 0.03669,0.03669 0.03657396,0.03657396 0 0 0 0.03669,-0.03669 0.03657396,0.03657396 0 0 0 -0.03669,-0.03617 0.03657396,0.03657396 0 0 0 -0.0052,0 z m 1.700155,0.03307 a 0.00332491,0.00332491 0 0 1 -5.17e-4,5.17e-4 0.00332491,0.00332491 0 0 1 -5.17e-4,0 0.00332491,0.00332491 0 0 1 -5.17e-4,5.16e-4 0.00332491,0.00332491 0 0 1 -5.16e-4,0 0.00332491,0.00332491 0 0 1 0,5.17e-4 0.00332491,0.00332491 0 0 1 0,5.17e-4 0.00332491,0.00332491 0 0 1 -5.17e-4,5.17e-4 0.00332491,0.00332491 0 0 1 0,5.16e-4 0.00332491,0.00332491 0 0 1 0,5.17e-4 0.00332491,0.00332491 0 0 1 0,5.17e-4 0.00332491,0.00332491 0 0 1 5.17e-4,5.17e-4 0.00332491,0.00332491 0 0 1 0,5.16e-4 0.00332491,0.00332491 0 0 1 0,5.17e-4 0.00332491,0.00332491 0 0 1 5.16e-4,0 0.00332491,0.00332491 0 0 1 5.17e-4,5.17e-4 0.00332491,0.00332491 0 0 1 5.17e-4,0 0.00332491,0.00332491 0 0 1 5.17e-4,5.17e-4 0.00332491,0.00332491 0 0 1 5.16e-4,0 0.00332491,0.00332491 0 0 1 5.17e-4,0 0.00332491,0.00332491 0 0 1 5.17e-4,0 0.00332491,0.00332491 0 0 1 5.17e-4,-5.17e-4 0.00332491,0.00332491 0 0 1 5.16e-4,0 0.00332491,0.00332491 0 0 1 5.17e-4,-5.17e-4 0.00332491,0.00332491 0 0 1 5.17e-4,-5.17e-4 0.00332491,0.00332491 0 0 1 0,-5.16e-4 0.00332491,0.00332491 0 0 1 5.17e-4,-5.17e-4 0.00332491,0.00332491 0 0 1 0,-5.17e-4 0.00332491,0.00332491 0 0 1 0,-5.17e-4 0.00332491,0.00332491 0 0 1 0,-5.16e-4 0.00332491,0.00332491 0 0 1 -5.17e-4,-5.17e-4 0.00332491,0.00332491 0 0 1 0,-5.17e-4 0.00332491,0.00332491 0 0 1 -5.17e-4,-5.17e-4 0.00332491,0.00332491 0 0 1 -5.17e-4,-5.16e-4 0.00332491,0.00332491 0 0 1 -5.16e-4,0 0.00332491,0.00332491 0 0 1 0,-5.17e-4 0.00332491,0.00332491 0 0 1 -5.17e-4,0 0.00332491,0.00332491 0 0 1 -5.17e-4,0 0.00332491,0.00332491 0 0 1 -5.17e-4,0 0.00332491,0.00332491 0 0 1 -5.16e-4,0 z m -1.694987,1.576131 a 0.1230215,0.1230215 0 0 0 -0.12299,0.12299 0.1230215,0.1230215 0 0 0 0.12299,0.12299 0.1230215,0.1230215 0 0 0 0.12299,-0.12299 0.1230215,0.1230215 0 0 0 -0.12299,-0.12299 z m 1.695503,0.09612 a 0.02659925,0.02659925 0 0 0 -0.02635,0.02687 0.02659925,0.02659925 0 0 0 0.02635,0.02635 0.02659925,0.02659925 0 0 0 0.02687,-0.02635 0.02659925,0.02659925 0 0 0 -0.02687,-0.02687 z m -22.047233,0.0036 a 0.02327434,0.02327434 0 0 0 -0.02015,0.02325 0.02327434,0.02327434 0 0 0 0.02325,0.02325 0.02327434,0.02327434 0 0 0 0.02325,-0.02325 0.02327434,0.02327434 0 0 0 -0.0052,-0.01499 0.02327434,0.02327434 0 0 0 -0.0052,-0.0047 0.02327434,0.02327434 0 0 0 -0.01292,-0.0036 0.02327434,0.02327434 0 0 0 -0.0031,0 z m 18.656226,1.432987 a 0.28594187,0.28594187 0 0 0 -0.286288,0.285771 0.28594187,0.28594187 0 0 0 0.286288,0.286287 0.28594187,0.28594187 0 0 0 0.285771,-0.286287 0.28594187,0.28594187 0 0 0 -0.285771,-0.285771 z m 1.695504,0.09974 a 0.1861947,0.1861947 0 0 0 -0.186036,0.186035 0.1861947,0.1861947 0 0 0 0.186036,0.186552 0.1861947,0.1861947 0 0 0 0.186035,-0.186552 0.1861947,0.1861947 0 0 0 -0.186035,-0.186035 z m 1.695503,0.113171 a 0.07314791,0.07314791 0 0 0 -0.07286,0.07286 0.07314791,0.07314791 0 0 0 0.07286,0.07338 0.07314791,0.07314791 0 0 0 0.07338,-0.07338 0.07314791,0.07314791 0 0 0 -0.07338,-0.07286 z m -22.044133,0.0067 a 0.06649811,0.06649811 0 0 0 -0.06615,0.06615 0.06649811,0.06649811 0 0 0 0.06615,0.06666 0.06649811,0.06649811 0 0 0 0.06666,-0.06666 0.06649811,0.06649811 0 0 0 -0.06666,-0.06615 z m 18.653126,1.439189 a 0.32251582,0.32251582 0 0 0 -0.322978,0.322977 0.32251582,0.32251582 0 0 0 0.322978,0.322461 0.32251582,0.32251582 0 0 0 0.322461,-0.322461 0.32251582,0.32251582 0 0 0 -0.322461,-0.322977 z m 1.695504,0.106453 a 0.21611886,0.21611886 0 0 0 -0.216008,0.216524 0.21611886,0.21611886 0 0 0 0.216008,0.216008 0.21611886,0.21611886 0 0 0 0.216007,-0.216008 0.21611886,0.21611886 0 0 0 -0.216007,-0.216524 z m 1.695503,0.116789 a 0.09974716,0.09974716 0 0 0 -0.09973,0.09974 0.09974716,0.09974716 0 0 0 0.09973,0.09974 0.09974716,0.09974716 0 0 0 0.09974,-0.09974 0.09974716,0.09974716 0 0 0 -0.09974,-0.09974 z m -22.090641,0.02532 a 0.09309735,0.09309735 0 0 0 -0.04651,0.07441 0.09309735,0.09309735 0 0 0 0.09302,0.09302 0.09309735,0.09309735 0 0 0 0.09353,-0.09302 0.09309735,0.09309735 0 0 0 -0.01137,-0.04237 z m -1.651062,0.0677 a 0.00664981,0.00664981 0 0 0 -0.0016,10e-4 0.00664981,0.00664981 0 0 0 -0.0021,0.0021 0.00664981,0.00664981 0 0 0 -0.001,0.0036 0.00664981,0.00664981 0 0 0 0.001,0.0036 0.00664981,0.00664981 0 0 0 0.0016,10e-4 0.00664981,0.00664981 0 0 0 0.0016,10e-4 0.00664981,0.00664981 0 0 0 0.0026,5.16e-4 0.00664981,0.00664981 0 0 0 0.0021,0 0.00664981,0.00664981 0 0 0 0.0016,-0.001 0.00664981,0.00664981 0 0 0 0.0015,-10e-4 0.00664981,0.00664981 0 0 0 0.0016,-0.0036 0.00664981,0.00664981 0 0 1 0,-5.17e-4 0.00664981,0.00664981 0 0 1 0,-5.16e-4 0.00664981,0.00664981 0 0 1 0,-5.17e-4 0.00664981,0.00664981 0 0 1 0,-5.17e-4 0.00664981,0.00664981 0 0 1 -5.17e-4,-5.17e-4 0.00664981,0.00664981 0 0 1 0,-5.17e-4 0.00664981,0.00664981 0 0 1 0,-5.16e-4 0.00664981,0.00664981 0 0 1 -5.17e-4,0 0.00664981,0.00664981 0 0 1 0,-5.17e-4 0.00664981,0.00664981 0 0 1 0,-5.17e-4 0.00664981,0.00664981 0 0 1 -5.17e-4,0 0.00664981,0.00664981 0 0 1 0,-5.17e-4 0.00664981,0.00664981 0 0 1 -5.17e-4,-5.16e-4 0.00664981,0.00664981 0 0 1 -5.16e-4,0 0.00664981,0.00664981 0 0 1 0,-5.17e-4 0.00664981,0.00664981 0 0 1 -5.17e-4,0 0.00664981,0.00664981 0 0 1 -5.17e-4,-5.17e-4 0.00664981,0.00664981 0 0 1 -5.17e-4,0 0.00664981,0.00664981 0 0 1 -5.16e-4,-5.17e-4 0.00664981,0.00664981 0 0 1 -5.17e-4,0 0.00664981,0.00664981 0 0 1 -5.17e-4,0 0.00664981,0.00664981 0 0 1 -5.17e-4,0 0.00664981,0.00664981 0 0 1 -5.16e-4,0 0.00664981,0.00664981 0 0 0 -0.0021,0 z m 20.350696,1.38958 a 0.3125411,0.3125411 0 0 0 -0.312643,0.312642 0.3125411,0.3125411 0 0 0 0.312643,0.312642 0.3125411,0.3125411 0 0 0 0.312126,-0.312642 0.3125411,0.3125411 0 0 0 -0.312126,-0.312642 z m 1.695504,0.106453 a 0.20614414,0.20614414 0 0 0 -0.206189,0.206189 0.20614414,0.20614414 0 0 0 0.206189,0.206189 0.20614414,0.20614414 0 0 0 0.206189,-0.206189 0.20614414,0.20614414 0 0 0 -0.206189,-0.206189 z m -18.652609,0.0067 a 0.19949432,0.19949432 0 0 0 -0.199471,0.199471 0.19949432,0.19949432 0 0 0 0.199471,0.199471 0.19949432,0.19949432 0 0 0 0.19172,-0.181384 l -0.07183,-0.167949 a 0.19949432,0.19949432 0 0 0 -0.119889,-0.04961 z m 20.348112,0.109554 a 0.08977245,0.08977245 0 0 0 -0.0894,0.08992 0.08977245,0.08977245 0 0 0 0.0894,0.08992 0.08977245,0.08977245 0 0 0 0.08992,-0.08992 0.08977245,0.08977245 0 0 0 -0.08992,-0.08992 z m -22.044133,0.0067 a 0.08312263,0.08312263 0 0 0 -0.08268,0.0832 0.08312263,0.08312263 0 0 0 0.08268,0.0832 0.08312263,0.08312263 0 0 0 0.0832,-0.0832 0.08312263,0.08312263 0 0 0 -0.0832,-0.0832 z m -1.697054,0.0801 a 0.00332491,0.00332491 0 0 1 0,5.17e-4 0.00332491,0.00332491 0 0 1 -5.16e-4,0 0.00332491,0.00332491 0 0 1 -5.17e-4,5.17e-4 0.00332491,0.00332491 0 0 1 -5.17e-4,5.17e-4 0.00332491,0.00332491 0 0 1 0,5.17e-4 0.00332491,0.00332491 0 0 1 0,5.16e-4 0.00332491,0.00332491 0 0 1 0,5.17e-4 0.00332491,0.00332491 0 0 1 0,5.17e-4 0.00332491,0.00332491 0 0 1 0,5.17e-4 0.00332491,0.00332491 0 0 1 0,5.16e-4 0.00332491,0.00332491 0 0 1 5.17e-4,0 0.00332491,0.00332491 0 0 1 0,5.17e-4 0.00332491,0.00332491 0 0 1 5.17e-4,5.17e-4 0.00332491,0.00332491 0 0 1 5.16e-4,0 0.00332491,0.00332491 0 0 1 0,5.17e-4 0.00332491,0.00332491 0 0 1 5.17e-4,0 0.00332491,0.00332491 0 0 1 5.17e-4,0 0.00332491,0.00332491 0 0 1 5.17e-4,0 0.00332491,0.00332491 0 0 1 5.16e-4,0 0.00332491,0.00332491 0 0 1 5.17e-4,0 0.00332491,0.00332491 0 0 1 5.17e-4,0 0.00332491,0.00332491 0 0 1 0,-5.17e-4 0.00332491,0.00332491 0 0 1 5.17e-4,0 0.00332491,0.00332491 0 0 1 5.16e-4,-5.17e-4 0.00332491,0.00332491 0 0 1 0,-5.17e-4 0.00332491,0.00332491 0 0 1 5.17e-4,0 0.00332491,0.00332491 0 0 1 0,-5.16e-4 0.00332491,0.00332491 0 0 1 0,-5.17e-4 0.00332491,0.00332491 0 0 1 0,-5.17e-4 0.00332491,0.00332491 0 0 1 0,-5.17e-4 0.00332491,0.00332491 0 0 1 0,-5.16e-4 0.00332491,0.00332491 0 0 1 0,-5.17e-4 0.00332491,0.00332491 0 0 1 -5.17e-4,-5.17e-4 0.00332491,0.00332491 0 0 1 0,-5.17e-4 0.00332491,0.00332491 0 0 1 -5.16e-4,0 0.00332491,0.00332491 0 0 1 -5.17e-4,-5.17e-4 0.00332491,0.00332491 0 0 1 -5.17e-4,0 0.00332491,0.00332491 0 0 1 -5.17e-4,0 0.00332491,0.00332491 0 0 1 -5.16e-4,0 0.00332491,0.00332491 0 0 1 -5.17e-4,0 0.00332491,0.00332491 0 0 1 -5.17e-4,0 0.00332491,0.00332491 0 0 1 -5.17e-4,0 z m 17.134355,0.474907 -0.218591,0.05219 a 0.53530979,0.53530979 0 0 0 0.04289,0.01137 0.53530979,0.53530979 0 0 0 0.226859,-0.05116 z m -1.87172,0.701766 a 0.52201021,0.52201021 0 0 0 -0.521932,0.521932 0.52201021,0.52201021 0 0 0 0.521932,0.522449 0.52201021,0.52201021 0 0 0 0.522449,-0.522449 0.52201021,0.52201021 0 0 0 -0.522449,-0.521932 z m 1.696021,0.07338 a 0.44886225,0.44886225 0 0 0 -0.449069,0.448552 0.44886225,0.44886225 0 0 0 0.449069,0.449068 0.44886225,0.44886225 0 0 0 0.448551,-0.449068 0.44886225,0.44886225 0 0 0 -0.448551,-0.448552 z m -8.522478,0.0186 a 0.44221246,0.44221246 0 0 0 -0.398425,0.429948 0.44221246,0.44221246 0 0 0 0.44235,0.44235 0.44221246,0.44221246 0 0 0 0.44235,-0.44235 0.44221246,0.44221246 0 0 0 -0.336413,-0.413412 z m 10.217981,0.07441 a 0.35576487,0.35576487 0 0 0 -0.355534,0.355534 0.35576487,0.35576487 0 0 0 0.355534,0.35605 0.35576487,0.35576487 0 0 0 0.356051,-0.35605 0.35576487,0.35576487 0 0 0 -0.356051,-0.355534 z m -8.901265,0.0708 a 0.51868522,0.51868522 0 0 0 -0.0956,0.284737 0.51868522,0.51868522 0 0 0 0.518315,0.518831 0.51868522,0.51868522 0 0 0 0.425814,-0.227376 l -0.51625,-0.539407 z m 10.597286,0.02894 a 0.25601771,0.25601771 0 0 0 -0.256315,0.255798 0.25601771,0.25601771 0 0 0 0.256315,0.256315 0.25601771,0.25601771 0 0 0 0.255798,-0.256315 0.25601771,0.25601771 0 0 0 -0.255798,-0.255798 z m -13.313916,0.01343 -0.550871,0.370004 a 0.35243997,0.35243997 0 0 0 0.299206,0.224792 0.35243997,0.35243997 0 0 0 0.352434,-0.352433 0.35243997,0.35243997 0 0 0 -0.100769,-0.242363 z m 15.00942,0.0832 a 0.15959546,0.15959546 0 0 0 -0.159681,0.159164 0.15959546,0.15959546 0 0 0 0.159681,0.15968 0.15959546,0.15959546 0 0 0 0.15968,-0.15968 0.15959546,0.15959546 0 0 0 -0.15968,-0.159164 z m 1.695503,0.105937 a 0.05319848,0.05319848 0 0 0 -0.05323,0.05323 0.05319848,0.05319848 0 0 0 0.05323,0.05323 0.05319848,0.05319848 0 0 0 0.05323,-0.05323 0.05319848,0.05319848 0 0 0 -0.05323,-0.05323 z m -9.617501,0.01964 -0.637687,0.577226 a 0.56523395,0.56523395 0 0 0 0.08113,0.0217 0.56523395,0.56523395 0 0 0 0.56534,-0.56534 0.56523395,0.56523395 0 0 0 -0.0088,-0.03359 z m -0.556555,1.310515 a 0.41893807,0.41893807 0 0 0 -0.419096,0.419095 0.41893807,0.41893807 0 0 0 0.419096,0.41858 0.41893807,0.41893807 0 0 0 0.419096,-0.41858 0.41893807,0.41893807 0 0 0 -0.419096,-0.419095 z m 1.695504,0.02997 a 0.38901392,0.38901392 0 0 0 -0.388607,0.389123 0.38901392,0.38901392 0 0 0 0.388607,0.389124 0.38901392,0.38901392 0 0 0 0.389124,-0.389124 0.38901392,0.38901392 0 0 0 -0.389124,-0.389123 z m -5.087028,0.0031 a 0.38568902,0.38568902 0 0 0 -0.385506,0.386023 0.38568902,0.38568902 0 0 0 0.385506,0.385507 0.38568902,0.38568902 0 0 0 0.386023,-0.385507 0.38568902,0.38568902 0 0 0 -0.386023,-0.386023 z m 6.783049,0.05013 a 0.33581546,0.33581546 0 0 0 -0.335897,0.335896 0.33581546,0.33581546 0 0 0 0.335897,0.335897 0.33581546,0.33581546 0 0 0 0.335896,-0.335897 0.33581546,0.33581546 0 0 0 -0.335896,-0.335896 z m -8.478553,0.0031 a 0.33249053,0.33249053 0 0 0 -0.332279,0.332796 0.33249053,0.33249053 0 0 0 0.332279,0.33228 0.33249053,0.33249053 0 0 0 0.33228,-0.33228 0.33249053,0.33249053 0 0 0 -0.33228,-0.332796 z m 3.149679,0.0021 a 0.41893807,0.41893807 0 0 0 -0.17725,0.330729 0.41893807,0.41893807 0 0 0 0.419095,0.41858 0.41893807,0.41893807 0 0 0 0.41858,-0.41858 0.41893807,0.41893807 0 0 0 -0.0072,-0.06408 l -0.212907,0.192753 z m 7.024377,0.07131 a 0.25934261,0.25934261 0 0 0 -0.259415,0.259415 0.25934261,0.25934261 0 0 0 0.259415,0.259416 0.25934261,0.25934261 0 0 0 0.259416,-0.259416 0.25934261,0.25934261 0 0 0 -0.259416,-0.259415 z m -11.86956,0.0031 a 0.25601771,0.25601771 0 0 0 -0.256315,0.256315 0.25601771,0.25601771 0 0 0 0.256315,0.255799 0.25601771,0.25601771 0 0 0 0.255799,-0.255799 0.25601771,0.25601771 0 0 0 -0.255799,-0.256315 z m 13.565581,0.0801 a 0.17621998,0.17621998 0 0 0 -0.176217,0.176216 0.17621998,0.17621998 0 0 0 0.176217,0.176217 0.17621998,0.17621998 0 0 0 0.176216,-0.176217 0.17621998,0.17621998 0 0 0 -0.176216,-0.176216 z m -15.261601,0.0067 a 0.16957018,0.16957018 0 0 0 -0.169499,0.169498 0.16957018,0.16957018 0 0 0 0.169499,0.169499 0.16957018,0.16957018 0 0 0 0.169498,-0.169499 0.16957018,0.16957018 0 0 0 -0.169498,-0.169498 z m 16.957105,0.07958 a 0.08977245,0.08977245 0 0 0 -0.08992,0.08992 0.08977245,0.08977245 0 0 0 0.08992,0.0894 0.08977245,0.08977245 0 0 0 0.08992,-0.0894 0.08977245,0.08977245 0 0 0 -0.08992,-0.08992 z m -18.652609,0.0067 a 0.08312263,0.08312263 0 0 0 -0.0832,0.0832 0.08312263,0.08312263 0 0 0 0.0832,0.0832 0.08312263,0.08312263 0 0 0 0.0832,-0.0832 0.08312263,0.08312263 0 0 0 -0.0832,-0.0832 z m 20.346562,0.06976 a 0.01329962,0.01329962 0 0 0 -0.01137,0.01344 0.01329962,0.01329962 0 0 0 0.01292,0.01292 0.01329962,0.01329962 0 0 0 0.01344,-0.01292 0.01329962,0.01329962 0 0 0 0,-5.16e-4 0.01329962,0.01329962 0 0 0 0,-5.17e-4 0.01329962,0.01329962 0 0 1 0,-5.17e-4 0.01329962,0.01329962 0 0 1 0,-5.17e-4 0.01329962,0.01329962 0 0 0 -5.16e-4,-0.0016 0.01329962,0.01329962 0 0 1 0,-5.17e-4 0.01329962,0.01329962 0 0 1 0,-5.16e-4 0.01329962,0.01329962 0 0 1 -5.17e-4,-5.17e-4 0.01329962,0.01329962 0 0 1 0,-5.17e-4 0.01329962,0.01329962 0 0 1 -5.17e-4,-5.17e-4 0.01329962,0.01329962 0 0 0 -5.17e-4,-0.0016 0.01329962,0.01329962 0 0 1 -5.17e-4,-5.17e-4 0.01329962,0.01329962 0 0 1 -5.16e-4,-5.17e-4 0.01329962,0.01329962 0 0 1 -5.17e-4,-5.16e-4 0.01329962,0.01329962 0 0 1 -5.17e-4,-5.17e-4 0.01329962,0.01329962 0 0 1 -5.17e-4,-5.17e-4 0.01329962,0.01329962 0 0 1 -5.16e-4,-5.17e-4 0.01329962,0.01329962 0 0 1 -5.17e-4,-5.16e-4 0.01329962,0.01329962 0 0 0 -0.0016,-5.17e-4 0.01329962,0.01329962 0 0 1 -5.17e-4,-5.17e-4 0.01329962,0.01329962 0 0 1 -5.17e-4,0 0.01329962,0.01329962 0 0 1 -5.17e-4,0 0.01329962,0.01329962 0 0 1 -5.16e-4,-5.17e-4 0.01329962,0.01329962 0 0 0 -0.0016,0 0.01329962,0.01329962 0 0 1 -5.17e-4,-5.16e-4 0.01329962,0.01329962 0 0 1 -5.16e-4,0 0.01329962,0.01329962 0 0 0 -0.0016,0 0.01329962,0.01329962 0 0 0 -0.0015,0 z m -22.033281,0.0093 -0.01344,0.0098 a 0.00997472,0.00997472 0 0 0 0.0041,0.0041 0.00997472,0.00997472 0 0 0 0.01034,-0.0098 0.00997472,0.00997472 0 0 1 0,-5.16e-4 0.00997472,0.00997472 0 0 1 0,-5.17e-4 0.00997472,0.00997472 0 0 1 -5.17e-4,-5.17e-4 0.00997472,0.00997472 0 0 1 0,-5.17e-4 0.00997472,0.00997472 0 0 1 0,-5.16e-4 0.00997472,0.00997472 0 0 1 0,-5.17e-4 0.00997472,0.00997472 0 0 1 0,-5.17e-4 0.00997472,0.00997472 0 0 1 -5.17e-4,-5.17e-4 z m 10.165271,1.440222 a 0.25934261,0.25934261 0 0 0 -0.259415,0.259416 0.25934261,0.25934261 0 0 0 0.259415,0.259416 0.25934261,0.25934261 0 0 0 0.259416,-0.259416 0.25934261,0.25934261 0 0 0 -0.259416,-0.259416 z m 1.695504,0 a 0.25934261,0.25934261 0 0 0 -0.259416,0.259416 0.25934261,0.25934261 0 0 0 0.259416,0.259416 0.25934261,0.25934261 0 0 0 0.259416,-0.259416 0.25934261,0.25934261 0 0 0 -0.259416,-0.259416 z m 1.695504,0.02015 a 0.23939317,0.23939317 0 0 0 -0.239262,0.239262 0.23939317,0.23939317 0 0 0 0.239262,0.239262 0.23939317,0.23939317 0 0 0 0.239779,-0.239262 0.23939317,0.23939317 0 0 0 -0.239779,-0.239262 z m -5.087028,0.0031 a 0.23606828,0.23606828 0 0 0 -0.236161,0.236161 0.23606828,0.23606828 0 0 0 0.236161,0.236161 0.23606828,0.23606828 0 0 0 0.236161,-0.236161 0.23606828,0.23606828 0 0 0 -0.236161,-0.236161 z m 6.783049,0.04031 a 0.19616942,0.19616942 0 0 0 -0.196371,0.195853 0.19616942,0.19616942 0 0 0 0.196371,0.196371 0.19616942,0.19616942 0 0 0 0.195853,-0.196371 0.19616942,0.19616942 0 0 0 -0.195853,-0.195853 z m -8.478553,0.0031 a 0.19284451,0.19284451 0 0 0 -0.192753,0.192753 0.19284451,0.19284451 0 0 0 0.192753,0.192753 0.19284451,0.19284451 0 0 0 0.192753,-0.192753 0.19284451,0.19284451 0 0 0 -0.192753,-0.192753 z m 10.174056,0.05633 a 0.13632111,0.13632111 0 0 0 -0.136425,0.136426 0.13632111,0.13632111 0 0 0 0.136425,0.136426 0.13632111,0.13632111 0 0 0 0.136426,-0.136426 0.13632111,0.13632111 0 0 0 -0.136426,-0.136426 z m -11.86956,0.0036 a 0.13299622,0.13299622 0 0 0 -0.133325,0.132808 0.13299622,0.13299622 0 0 0 0.133325,0.132809 0.13299622,0.13299622 0 0 0 0.132809,-0.132809 0.13299622,0.13299622 0 0 0 -0.132809,-0.132808 z m 13.565581,0.06615 a 0.06649811,0.06649811 0 0 0 -0.06666,0.06666 0.06649811,0.06649811 0 0 0 0.06666,0.06666 0.06649811,0.06649811 0 0 0 0.06615,-0.06666 0.06649811,0.06649811 0 0 0 -0.06615,-0.06666 z m -15.261601,0.0036 a 0.0631732,0.0631732 0 0 0 -0.06305,0.06304 0.0631732,0.0631732 0 0 0 0.06305,0.06305 0.0631732,0.0631732 0 0 0 0.06304,-0.06305 0.0631732,0.0631732 0 0 0 -0.06304,-0.06304 z m -1.695504,0.04961 a 0.01329962,0.01329962 0 0 0 -0.01344,0.01344 0.01329962,0.01329962 0 0 0 0.01344,0.01344 0.01329962,0.01329962 0 0 0 0.01292,-0.01344 0.01329962,0.01329962 0 0 1 0,-5.17e-4 0.01329962,0.01329962 0 0 0 0,-5.16e-4 0.01329962,0.01329962 0 0 0 0,-5.17e-4 0.01329962,0.01329962 0 0 0 0,-5.17e-4 0.01329962,0.01329962 0 0 1 0,-5.17e-4 0.01329962,0.01329962 0 0 1 0,-5.16e-4 0.01329962,0.01329962 0 0 0 -5.17e-4,-0.0016 0.01329962,0.01329962 0 0 1 0,-5.16e-4 0.01329962,0.01329962 0 0 1 -5.16e-4,-5.17e-4 0.01329962,0.01329962 0 0 1 -5.17e-4,-5.17e-4 0.01329962,0.01329962 0 0 1 0,-5.17e-4 0.01329962,0.01329962 0 0 1 -5.17e-4,-5.17e-4 0.01329962,0.01329962 0 0 1 -5.17e-4,-5.16e-4 0.01329962,0.01329962 0 0 1 0,-5.17e-4 0.01329962,0.01329962 0 0 1 -5.17e-4,-5.17e-4 0.01329962,0.01329962 0 0 1 -5.16e-4,-5.17e-4 0.01329962,0.01329962 0 0 1 -5.17e-4,-5.16e-4 0.01329962,0.01329962 0 0 1 -5.17e-4,-5.17e-4 0.01329962,0.01329962 0 0 1 -5.17e-4,-5.17e-4 0.01329962,0.01329962 0 0 1 -5.16e-4,0 0.01329962,0.01329962 0 0 1 -5.17e-4,-5.17e-4 0.01329962,0.01329962 0 0 1 -5.17e-4,-5.16e-4 0.01329962,0.01329962 0 0 1 -5.17e-4,0 0.01329962,0.01329962 0 0 0 -0.0015,-5.17e-4 0.01329962,0.01329962 0 0 1 -5.17e-4,0 0.01329962,0.01329962 0 0 1 -5.16e-4,-5.17e-4 0.01329962,0.01329962 0 0 1 -5.17e-4,0 0.01329962,0.01329962 0 0 0 -0.0016,0 0.01329962,0.01329962 0 0 1 -5.16e-4,-5.17e-4 0.01329962,0.01329962 0 0 1 -5.17e-4,0 z m 18.652609,0 a 0.01329962,0.01329962 0 0 0 -0.01344,0.01344 0.01329962,0.01329962 0 0 0 0.01344,0.01344 0.01329962,0.01329962 0 0 0 0.01344,-0.01344 0.01329962,0.01329962 0 0 1 0,-5.17e-4 0.01329962,0.01329962 0 0 0 -5.17e-4,-0.0016 0.01329962,0.01329962 0 0 1 0,-5.17e-4 0.01329962,0.01329962 0 0 1 0,-5.16e-4 0.01329962,0.01329962 0 0 0 -5.17e-4,-0.0016 0.01329962,0.01329962 0 0 1 0,-5.16e-4 0.01329962,0.01329962 0 0 1 -5.17e-4,-5.17e-4 0.01329962,0.01329962 0 0 1 0,-5.17e-4 0.01329962,0.01329962 0 0 1 -5.17e-4,-5.17e-4 0.01329962,0.01329962 0 0 1 -5.16e-4,-5.17e-4 0.01329962,0.01329962 0 0 1 0,-5.16e-4 0.01329962,0.01329962 0 0 1 -5.17e-4,-5.17e-4 0.01329962,0.01329962 0 0 1 -5.17e-4,-5.17e-4 0.01329962,0.01329962 0 0 1 -5.17e-4,-5.17e-4 0.01329962,0.01329962 0 0 1 -5.16e-4,-5.16e-4 0.01329962,0.01329962 0 0 1 -5.17e-4,-5.17e-4 0.01329962,0.01329962 0 0 1 -5.17e-4,-5.17e-4 0.01329962,0.01329962 0 0 1 -5.17e-4,0 0.01329962,0.01329962 0 0 1 -5.16e-4,-5.17e-4 0.01329962,0.01329962 0 0 1 -5.17e-4,-5.16e-4 0.01329962,0.01329962 0 0 1 -5.17e-4,0 0.01329962,0.01329962 0 0 1 -5.17e-4,-5.17e-4 0.01329962,0.01329962 0 0 0 -0.0016,0 0.01329962,0.01329962 0 0 1 -5.17e-4,-5.17e-4 0.01329962,0.01329962 0 0 1 -5.17e-4,0 0.01329962,0.01329962 0 0 0 -0.0016,0 0.01329962,0.01329962 0 0 1 -5.17e-4,-5.17e-4 0.01329962,0.01329962 0 0 1 -5.16e-4,0 z m -10.174057,1.606104 a 0.10307207,0.10307207 0 0 0 -0.103352,0.103353 0.10307207,0.10307207 0 0 0 0.103352,0.102836 0.10307207,0.10307207 0 0 0 0.102837,-0.102836 0.10307207,0.10307207 0 0 0 -0.102837,-0.103353 z m 1.695504,0 a 0.10307207,0.10307207 0 0 0 -0.102836,0.103353 0.10307207,0.10307207 0 0 0 0.102836,0.102836 0.10307207,0.10307207 0 0 0 0.103353,-0.102836 0.10307207,0.10307207 0 0 0 -0.103353,-0.103353 z m 1.695504,0.01654 a 0.08644754,0.08644754 0 0 0 -0.0863,0.08682 0.08644754,0.08644754 0 0 0 0.0863,0.0863 0.08644754,0.08644754 0 0 0 0.08682,-0.0863 0.08644754,0.08644754 0 0 0 -0.08682,-0.08682 z m -5.087028,0.0036 a 0.08312263,0.08312263 0 0 0 -0.0832,0.0832 0.08312263,0.08312263 0 0 0 0.0832,0.08268 0.08312263,0.08312263 0 0 0 0.0832,-0.08268 0.08312263,0.08312263 0 0 0 -0.0832,-0.0832 z m -1.695504,0.02997 a 0.05319848,0.05319848 0 0 0 -0.05323,0.05323 0.05319848,0.05319848 0 0 0 0.05323,0.05271 0.05319848,0.05319848 0 0 0 0.05323,-0.05271 0.05319848,0.05319848 0 0 0 -0.05323,-0.05323 z m 8.478553,0 a 0.05319848,0.05319848 0 0 0 -0.05323,0.05323 0.05319848,0.05319848 0 0 0 0.05323,0.05271 0.05319848,0.05319848 0 0 0 0.05323,-0.05271 0.05319848,0.05319848 0 0 0 -0.05323,-0.05323 z m -10.177157,0.03307 a 0.01994943,0.01994943 0 0 0 -0.01705,0.02015 0.01994943,0.01994943 0 0 0 0.02015,0.01964 0.01994943,0.01994943 0 0 0 0.01964,-0.01964 0.01994943,0.01994943 0 0 0 -10e-4,-0.0062 0.01994943,0.01994943 0 0 0 -0.001,-0.0036 0.01994943,0.01994943 0 0 0 -0.001,-0.0016 0.01994943,0.01994943 0 0 0 -0.0016,-0.0015 0.01994943,0.01994943 0 0 0 -0.0021,-0.0021 0.01994943,0.01994943 0 0 1 -5.16e-4,-5.17e-4 0.01994943,0.01994943 0 0 0 -0.0026,-0.0021 0.01994943,0.01994943 0 0 0 -0.0026,-0.001 0.01994943,0.01994943 0 0 0 -0.0067,-0.0015 0.01994943,0.01994943 0 0 1 -5.17e-4,0 0.01994943,0.01994943 0 0 0 -0.0031,0 z m 11.870076,0 a 0.01994943,0.01994943 0 0 0 -0.01705,0.02015 0.01994943,0.01994943 0 0 0 0.01964,0.01964 0.01994943,0.01994943 0 0 0 0.02015,-0.01964 0.01994943,0.01994943 0 0 0 -10e-4,-0.0062 0.01994943,0.01994943 0 0 0 -0.0016,-0.0036 0.01994943,0.01994943 0 0 0 -10e-4,-0.0016 0.01994943,0.01994943 0 0 0 -0.001,-0.0015 0.01994943,0.01994943 0 0 0 -0.0021,-0.0021 0.01994943,0.01994943 0 0 0 -0.0041,-0.0031 0.01994943,0.01994943 0 0 0 -0.0036,-10e-4 0.01994943,0.01994943 0 0 0 -0.0057,-0.001 0.01994943,0.01994943 0 0 0 -0.0026,0 z m -6.779948,1.71204 a 0.00332491,0.00332491 0 0 1 -5.16e-4,5.17e-4 0.00332491,0.00332491 0 0 1 -5.17e-4,0 0.00332491,0.00332491 0 0 1 -5.17e-4,0 0.00332491,0.00332491 0 0 1 -5.17e-4,0 0.00332491,0.00332491 0 0 1 -5.16e-4,5.17e-4 0.00332491,0.00332491 0 0 1 0,5.16e-4 0.00332491,0.00332491 0 0 1 -5.17e-4,0 0.00332491,0.00332491 0 0 1 0,5.17e-4 0.00332491,0.00332491 0 0 1 0,5.17e-4 0.00332491,0.00332491 0 0 1 -5.17e-4,5.17e-4 0.00332491,0.00332491 0 0 1 0,5.17e-4 0.00332491,0.00332491 0 0 1 0,5.16e-4 0.00332491,0.00332491 0 0 1 5.17e-4,5.17e-4 0.00332491,0.00332491 0 0 1 0,5.17e-4 0.00332491,0.00332491 0 0 1 5.17e-4,5.17e-4 0.00332491,0.00332491 0 0 1 0,5.16e-4 0.00332491,0.00332491 0 0 1 5.16e-4,0 0.00332491,0.00332491 0 0 1 5.17e-4,5.17e-4 0.00332491,0.00332491 0 0 1 5.17e-4,0 0.00332491,0.00332491 0 0 1 5.17e-4,0 0.00332491,0.00332491 0 0 1 5.16e-4,0 0.00332491,0.00332491 0 0 1 5.17e-4,0 0.00332491,0.00332491 0 0 1 5.17e-4,0 0.00332491,0.00332491 0 0 1 5.17e-4,-5.17e-4 0.00332491,0.00332491 0 0 1 5.16e-4,0 0.00332491,0.00332491 0 0 1 5.17e-4,-5.16e-4 0.00332491,0.00332491 0 0 1 0,-5.17e-4 0.00332491,0.00332491 0 0 1 5.17e-4,0 0.00332491,0.00332491 0 0 1 0,-5.17e-4 0.00332491,0.00332491 0 0 1 0,-5.17e-4 0.00332491,0.00332491 0 0 1 0,-5.16e-4 0.00332491,0.00332491 0 0 1 0,-5.17e-4 0.00332491,0.00332491 0 0 1 0,-5.17e-4 0.00332491,0.00332491 0 0 1 0,-5.17e-4 0.00332491,0.00332491 0 0 1 -5.17e-4,0 0.00332491,0.00332491 0 0 1 0,-5.17e-4 0.00332491,0.00332491 0 0 1 -5.17e-4,0 0.00332491,0.00332491 0 0 1 0,-5.16e-4 0.00332491,0.00332491 0 0 1 -5.16e-4,0 0.00332491,0.00332491 0 0 1 0,-5.17e-4 0.00332491,0.00332491 0 0 1 -5.17e-4,0 0.00332491,0.00332491 0 0 1 -5.17e-4,0 0.00332491,0.00332491 0 0 1 -5.17e-4,-5.17e-4 z m 1.695504,0 a 0.00332491,0.00332491 0 0 1 -5.17e-4,5.17e-4 0.00332491,0.00332491 0 0 1 -5.16e-4,0 0.00332491,0.00332491 0 0 1 -5.17e-4,0 0.00332491,0.00332491 0 0 1 -5.17e-4,5.17e-4 0.00332491,0.00332491 0 0 1 -5.17e-4,5.16e-4 0.00332491,0.00332491 0 0 1 -5.16e-4,5.17e-4 0.00332491,0.00332491 0 0 1 0,5.17e-4 0.00332491,0.00332491 0 0 1 0,5.17e-4 0.00332491,0.00332491 0 0 1 0,5.17e-4 0.00332491,0.00332491 0 0 1 0,5.16e-4 0.00332491,0.00332491 0 0 1 0,5.17e-4 0.00332491,0.00332491 0 0 1 0,5.17e-4 0.00332491,0.00332491 0 0 1 5.16e-4,0 0.00332491,0.00332491 0 0 1 0,5.17e-4 0.00332491,0.00332491 0 0 1 5.17e-4,5.16e-4 0.00332491,0.00332491 0 0 1 5.17e-4,0 0.00332491,0.00332491 0 0 1 0,5.17e-4 0.00332491,0.00332491 0 0 1 5.17e-4,0 0.00332491,0.00332491 0 0 1 5.16e-4,0 0.00332491,0.00332491 0 0 1 5.17e-4,0 0.00332491,0.00332491 0 0 1 5.17e-4,0 0.00332491,0.00332491 0 0 1 5.17e-4,0 0.00332491,0.00332491 0 0 1 5.16e-4,0 0.00332491,0.00332491 0 0 1 5.17e-4,-5.17e-4 0.00332491,0.00332491 0 0 1 5.17e-4,-5.16e-4 0.00332491,0.00332491 0 0 1 0,-5.17e-4 0.00332491,0.00332491 0 0 1 5.17e-4,0 0.00332491,0.00332491 0 0 1 0,-5.17e-4 0.00332491,0.00332491 0 0 1 0,-5.17e-4 0.00332491,0.00332491 0 0 1 0,-5.16e-4 0.00332491,0.00332491 0 0 1 0,-5.17e-4 0.00332491,0.00332491 0 0 1 0,-5.17e-4 0.00332491,0.00332491 0 0 1 0,-5.17e-4 0.00332491,0.00332491 0 0 1 -5.17e-4,-5.17e-4 0.00332491,0.00332491 0 0 1 0,-5.16e-4 0.00332491,0.00332491 0 0 1 -5.17e-4,0 0.00332491,0.00332491 0 0 1 -5.17e-4,-5.17e-4 0.00332491,0.00332491 0 0 1 -5.16e-4,0 0.00332491,0.00332491 0 0 1 -5.17e-4,0 0.00332491,0.00332491 0 0 1 0,-5.17e-4 0.00332491,0.00332491 0 0 1 -5.17e-4,0 z m 1.695504,0 a 0.00332491,0.00332491 0 0 1 0,5.17e-4 0.00332491,0.00332491 0 0 1 -5.17e-4,0 0.00332491,0.00332491 0 0 1 -5.17e-4,0 0.00332491,0.00332491 0 0 1 -5.16e-4,0 0.00332491,0.00332491 0 0 1 -5.17e-4,5.17e-4 0.00332491,0.00332491 0 0 1 0,5.16e-4 0.00332491,0.00332491 0 0 1 -5.17e-4,0 0.00332491,0.00332491 0 0 1 0,5.17e-4 0.00332491,0.00332491 0 0 1 -5.17e-4,5.17e-4 0.00332491,0.00332491 0 0 1 0,5.17e-4 0.00332491,0.00332491 0 0 1 0,5.17e-4 0.00332491,0.00332491 0 0 1 0,5.16e-4 0.00332491,0.00332491 0 0 1 0,5.17e-4 0.00332491,0.00332491 0 0 1 5.17e-4,5.17e-4 0.00332491,0.00332491 0 0 1 5.17e-4,5.17e-4 0.00332491,0.00332491 0 0 1 0,5.16e-4 0.00332491,0.00332491 0 0 1 5.17e-4,0 0.00332491,0.00332491 0 0 1 5.16e-4,5.17e-4 0.00332491,0.00332491 0 0 1 5.17e-4,0 0.00332491,0.00332491 0 0 1 5.17e-4,0 0.00332491,0.00332491 0 0 1 5.17e-4,0 0.00332491,0.00332491 0 0 1 5.17e-4,0 0.00332491,0.00332491 0 0 1 5.16e-4,0 0.00332491,0.00332491 0 0 1 5.17e-4,-5.17e-4 0.00332491,0.00332491 0 0 1 5.17e-4,0 0.00332491,0.00332491 0 0 1 0,-5.16e-4 0.00332491,0.00332491 0 0 1 5.17e-4,-5.17e-4 0.00332491,0.00332491 0 0 1 5.16e-4,-5.17e-4 0.00332491,0.00332491 0 0 1 0,-5.17e-4 0.00332491,0.00332491 0 0 1 0,-5.16e-4 0.00332491,0.00332491 0 0 1 0,-5.17e-4 0.00332491,0.00332491 0 0 1 0,-5.17e-4 0.00332491,0.00332491 0 0 1 -5.16e-4,0 0.00332491,0.00332491 0 0 1 0,-5.17e-4 0.00332491,0.00332491 0 0 1 0,-5.17e-4 0.00332491,0.00332491 0 0 1 -5.17e-4,0 0.00332491,0.00332491 0 0 1 0,-5.16e-4 0.00332491,0.00332491 0 0 1 -5.17e-4,0 0.00332491,0.00332491 0 0 1 0,-5.17e-4 0.00332491,0.00332491 0 0 1 -5.17e-4,0 0.00332491,0.00332491 0 0 1 -5.16e-4,0 0.00332491,0.00332491 0 0 1 -5.17e-4,0 0.00332491,0.00332491 0 0 1 0,-5.17e-4 0.00332491,0.00332491 0 0 1 -5.17e-4,0 z" />
      <path
         id="path2872"
         style="fill:#000000;stroke:#000000;stroke-width:0.105833;stroke-linecap:butt;stroke-linejoin:round;stroke-dasharray:none;stroke-opacity:1"
         d="m 26.61547,23.953319 c -0.696641,3.319643 -1.778325,4.445261 -6.375304,2.539678 2.254886,3.062402 0.969376,5.376619 -2.165209,6.618549 2.003666,0.205806 3.201148,0.776132 3.760845,2.275588 l -1.328958,1.012492 -0.655947,-1.993328 -3.679276,3.282686 2.740912,-1.053285 0.812203,2.245879 2.440032,-1.959032 c 0.05799,0.58687 0.06979,1.258289 0.03725,2.032148 3.728645,-2.856586 5.247628,-3.718782 8.224527,0.04712 1.812496,-2.170424 3.551114,-4.334302 9.099105,-2.112125 -3.375487,-4.531018 -1.564504,-5.164289 0.80698,-6.957155 -4.276011,-0.565515 -5.062853,-1.833274 -5.127332,-5.773275 -3.258404,3.367755 -4.446373,4.029241 -8.589831,-0.20594 z m 0.152936,0.621824 c 3.739319,3.956061 5.220042,3.502445 8.180953,0.279943 0.100284,2.611937 -0.206561,4.484371 4.480064,5.232564 -3.006701,1.451594 -3.017998,3.517635 -0.826467,6.074682 -4.540745,-1.473517 -5.111687,-0.935952 -8.262975,2.140434 -2.881617,-3.696014 -4.564235,-2.589903 -7.752205,-0.191309 0.05663,-0.490607 0.103181,-1.100497 0.09461,-1.58579 l -0.106766,0.06628 0.866282,-0.695277 -3.618144,2.44739 -0.705024,-2.180387 -2.187137,1.032231 2.797904,-2.219282 0.623749,2.026237 2.553719,-2.431594 -0.488945,0.372283 c -0.378071,-1.028485 -1.229377,-1.819832 -2.979456,-2.040224 1.528266,-1.166319 3.488586,-1.856341 1.660886,-5.731399 3.367692,1.56148 5.499532,0.824009 5.668955,-2.596782 z" />
      <path
         id="path3"
         style="font-size:10.9316px;line-height:1.25;font-family:'Indie Flower';-inkscape-font-specification:'Indie Flower';stroke-width:0.455479"
         d="m 32.658472,28.32592 c -0.213507,0 -0.44814,0.02138 -0.704349,0.06408 -0.249093,0.0427 -0.483726,0.117522 -0.70435,0.224276 -0.213508,0.09964 -0.395215,0.234853 -0.54467,0.40566 -0.142338,0.170806 -0.213423,0.391532 -0.213423,0.661975 0,0.128104 0.02138,0.259587 0.06408,0.394808 0.0427,0.128104 0.09936,0.252633 0.170533,0.37362 0.07117,0.113871 0.160414,0.220757 0.267167,0.320394 0.106754,0.09252 0.216858,0.171075 0.330729,0.235128 l 3.170866,1.729094 c 0.106756,0.05694 0.18853,0.114115 0.245463,0.171049 0.06405,0.05693 0.106804,0.117331 0.128158,0.181384 0.02847,0.05694 0.04611,0.124285 0.05323,0.202572 0.0071,0.07828 0.01085,0.16753 0.01085,0.267167 0.0071,0.220624 -0.06397,0.384172 -0.213423,0.490926 -0.149456,0.106752 -0.331163,0.185308 -0.54467,0.235128 -0.213508,0.0427 -0.437969,0.06729 -0.672827,0.07441 -0.227741,0 -0.412666,0.0037 -0.555005,0.01085 -0.427016,-0.02135 -0.825196,-0.05715 -1.195276,-0.106971 -0.37008,-0.04982 -0.701427,-0.145499 -0.993221,-0.287837 -0.284677,-0.142339 -0.508621,-0.345422 -0.67231,-0.608749 -0.16369,-0.270442 -0.245463,-0.637074 -0.245463,-1.099674 -0.07829,0 -0.153107,0.02511 -0.224276,0.07493 -0.07117,0.04982 -0.131564,0.11395 -0.181384,0.192236 -0.04982,0.07117 -0.08884,0.149208 -0.117306,0.234611 -0.02847,0.07829 -0.04289,0.153106 -0.04289,0.224276 0.07117,0.284676 0.21334,0.540687 0.426847,0.768428 0.213508,0.220625 0.470035,0.416756 0.768945,0.587561 0.298911,0.16369 0.629742,0.295171 0.992705,0.394808 0.362963,0.09963 0.729594,0.167502 1.099674,0.203089 0.37008,0.03559 0.729242,0.03559 1.07797,0 0.348729,-0.02847 0.665653,-0.0926 0.95033,-0.192237 0.284677,-0.106754 0.51931,-0.252659 0.70435,-0.437699 0.185038,-0.18504 0.295142,-0.405766 0.330729,-0.661975 0.03559,-0.256209 -0.0067,-0.483889 -0.127641,-0.683163 -0.11387,-0.20639 -0.277935,-0.398785 -0.491443,-0.576709 -0.20639,-0.177923 -0.451712,-0.341471 -0.736389,-0.490926 -0.27756,-0.149455 -0.565636,-0.291625 -0.864547,-0.426847 -0.291793,-0.142339 -0.583605,-0.277556 -0.875398,-0.40566 -0.284677,-0.135221 -0.544422,-0.274174 -0.779281,-0.416512 -0.227741,-0.149455 -0.409448,-0.302314 -0.54467,-0.458887 -0.135221,-0.163689 -0.203088,-0.341661 -0.203088,-0.533817 0,-0.199274 0.0716,-0.35265 0.213941,-0.459404 0.149455,-0.113869 0.323691,-0.195643 0.522965,-0.245463 0.20639,-0.05694 0.416428,-0.09222 0.629936,-0.106453 0.213508,-0.01423 0.387744,-0.0217 0.522965,-0.0217 0.149455,-0.01423 0.291626,1.92e-4 0.426848,0.04289 0.135221,0.0427 0.263484,0.09988 0.384472,0.171049 0.120987,0.07117 0.238563,0.142254 0.352434,0.213424 0.113871,0.07117 0.223975,0.135303 0.330729,0.192236 0.106753,0.05693 0.209904,0.09595 0.309542,0.117305 0.106753,0.02135 0.209905,0.0037 0.309541,-0.05323 0,-0.156572 -0.04597,-0.29179 -0.138492,-0.40566 -0.0854,-0.120988 -0.196025,-0.224656 -0.331246,-0.310059 -0.135222,-0.09252 -0.291816,-0.166826 -0.469739,-0.223759 -0.170807,-0.05693 -0.345043,-0.103423 -0.522966,-0.139009 -0.177923,-0.03559 -0.345205,-0.0607 -0.501778,-0.07493 -0.156572,-0.02135 -0.284835,-0.03204 -0.384473,-0.03204 z m -4.35839,0.160197 c -0.149455,0.0054 -0.299096,0.05183 -0.448551,0.13901 -0.170806,0.09252 -0.341308,0.217048 -0.512114,0.37362 -0.170806,0.156572 -0.341824,0.334544 -0.51263,0.533818 -0.163689,0.199274 -0.320284,0.394887 -0.469739,0.587044 -0.149455,0.192157 -0.287891,0.370129 -0.415995,0.533818 -0.120988,0.163689 -0.227874,0.295171 -0.320394,0.394808 -0.02135,-0.177923 -0.04273,-0.359113 -0.06408,-0.544153 -0.01423,-0.18504 -0.03187,-0.366746 -0.05323,-0.54467 -0.01423,-0.185039 -0.02866,-0.355541 -0.04289,-0.512113 -0.01423,-0.156572 -0.03561,-0.291789 -0.06408,-0.40566 -0.01423,-0.02847 -0.02492,-0.07122 -0.03204,-0.128158 -0.0071,-0.06405 -0.02154,-0.124967 -0.04289,-0.181901 -0.01423,-0.06405 -0.03883,-0.11698 -0.07441,-0.15968 -0.02847,-0.0427 -0.07496,-0.06408 -0.139009,-0.06408 -0.02847,0 -0.06053,0.01069 -0.09612,0.03204 -0.02847,0.02135 -0.05306,0.04968 -0.07441,0.08527 -0.02135,0.02847 -0.03951,0.06053 -0.05374,0.09612 -0.0071,0.02847 -0.01033,0.04985 -0.01033,0.06408 0,0.213508 0.01391,0.444923 0.04237,0.694014 0.02847,0.249093 0.06053,0.501368 0.09612,0.757577 0.0427,0.256209 0.0785,0.509001 0.10697,0.758093 0.03559,0.249092 0.06018,0.48746 0.07441,0.715202 0,0.05693 -0.0032,0.17451 -0.01033,0.352433 v 0.619084 c 0,0.234858 0.007,0.483915 0.02119,0.747241 0.01423,0.263326 0.03934,0.50543 0.07493,0.726054 0.03558,0.220624 0.08529,0.401814 0.149345,0.544153 0.06405,0.142338 0.145825,0.21394 0.245463,0.21394 0.09963,0 0.167501,-0.04275 0.203088,-0.128157 0.03559,-0.0854 0.05323,-0.199243 0.05323,-0.341582 0,-0.142338 -0.01442,-0.302667 -0.04289,-0.48059 -0.02847,-0.177923 -0.0568,-0.35963 -0.08527,-0.54467 -0.02135,-0.18504 -0.03899,-0.362495 -0.05323,-0.533301 -0.0071,-0.177923 0.0036,-0.327563 0.03204,-0.448551 0.0854,0.128104 0.202461,0.259586 0.351916,0.394808 0.149456,0.135221 0.320474,0.274173 0.512631,0.416512 0.192157,0.142338 0.39524,0.284509 0.608748,0.426847 0.213507,0.142338 0.41981,0.28129 0.619084,0.416512 0.199274,0.135221 0.387934,0.263485 0.565857,0.384473 0.177923,0.11387 0.323829,0.217022 0.437699,0.309542 0.149455,0.07117 0.270249,0.110185 0.362769,0.117305 0.09252,0.01423 0.159871,0.0035 0.202571,-0.03204 0.04982,-0.03559 0.07493,-0.08208 0.07493,-0.13901 0.0071,-0.06405 -0.0073,-0.127666 -0.04289,-0.191719 -0.02847,-0.07117 -0.07444,-0.135303 -0.138493,-0.192237 -0.06405,-0.05694 -0.138873,-0.09969 -0.224276,-0.128157 -0.284676,-0.185041 -0.576488,-0.373701 -0.875399,-0.565857 -0.29891,-0.18504 -0.586987,-0.384389 -0.864546,-0.597897 -0.27756,-0.213507 -0.544776,-0.437451 -0.800985,-0.67231 -0.249093,-0.241975 -0.473037,-0.501721 -0.672311,-0.779281 0.09252,-0.156572 0.213314,-0.320637 0.362769,-0.491442 0.149455,-0.18504 0.309784,-0.369965 0.480591,-0.555005 l 0.51263,-0.555005 c 0.177923,-0.18504 0.34147,-0.366747 0.490926,-0.54467 0.09964,-0.106754 0.195835,-0.20617 0.288355,-0.29869 0.09252,-0.09252 0.170557,-0.181764 0.234611,-0.267167 0.06405,-0.0854 0.106804,-0.159705 0.128157,-0.223759 0.02847,-0.07117 0.01778,-0.132081 -0.03204,-0.181901 -0.02135,-8.89e-4 -0.04273,-7.78e-4 -0.06408,0 z m -5.145422,0.321944 c -0.05338,-0.0011 -0.10682,0.03425 -0.160197,0.10542 0,0.170806 0.01764,0.359467 0.05323,0.565857 0.0427,0.206391 0.08919,0.412694 0.13901,0.619084 0.04982,0.199274 0.09952,0.387934 0.149345,0.565857 0.05693,0.177922 0.09595,0.320093 0.117305,0.426847 0.0427,0.256209 0.08172,0.533597 0.117306,0.832508 0.03559,0.284676 0.06765,0.573269 0.09612,0.865063 l 0.08578,0.875399 c 0.03558,0.284677 0.07087,0.558329 0.106453,0.821655 0.0071,0.01423 0.02154,0.0463 0.04289,0.09612 0.02847,0.0427 0.06375,0.08919 0.106453,0.13901 0.0427,0.04982 0.08546,0.09579 0.128158,0.138493 0.0427,0.03559 0.08546,0.04627 0.128157,0.03204 0.06405,-0.01423 0.110543,-0.03561 0.13901,-0.06408 0.03558,-0.03558 0.05696,-0.07087 0.06408,-0.106453 0.0071,-0.0427 0.01034,-0.08546 0.01034,-0.128158 v -0.128157 c 0,-0.128105 -0.01391,-0.316765 -0.04237,-0.565857 -0.02847,-0.249093 -0.06427,-0.533951 -0.10697,-0.854212 -0.0427,-0.320261 -0.09614,-0.66178 -0.160197,-1.024743 -0.05693,-0.362963 -0.121067,-0.715172 -0.192236,-1.056783 -0.06405,-0.341613 -0.138356,-0.661754 -0.223759,-0.960665 -0.07829,-0.306027 -0.160061,-0.555084 -0.245463,-0.747241 -0.0854,-0.199274 -0.170912,-0.334491 -0.256315,-0.40566 -0.03203,-0.02669 -0.06409,-0.04067 -0.09612,-0.04134 z" />
    </g>
  </g>
</svg>
